<?xml version="1.0" standalone="no"?>
<svg xmlns="http://www.w3.org/2000/svg" viewBox="0 0 130.825 36" width="130.825" height="36"><g fill="#ffffff" color="#ffffff" transform="translate(0 4) scale(0.175)"><svg width="160.0" height="160.0" x="0.0" y="0.0" viewBox="0 0 160 160"><g><path d="M44.895,65.2c0.55,3.32,3.27,5.79,6.61,6.1c0.29,1.09,0.69,2.63,1.27,4.79c1.29,4.86,4.12,9.16,7.99,12.3v5.317   c2.353,0.131,4.698,0.502,7,1.118V92.62l1.01,0.53c3.51,1.87,7.37,2.8,11.22,2.8c3.86,0,7.71-0.93,11.22-2.8l1.01-0.53v2.205   c2.3-0.616,4.646-0.988,7-1.119V88.39c3.87-3.14,6.7-7.44,8-12.3c0.57-2.17,0.98-3.7,1.26-4.79c3.36-0.31,6.08-2.79,6.6-6.11   l1.55-9.66c0.36-2.37-0.32-4.78-1.89-6.6c-0.54-0.64-1.17-1.18-1.86-1.62c0.82-2.73,1.25-5.55,1.28-8.42v-0.1   c-0.18-9.33-4.32-17.99-11.41-24.01v-0.34c-0.01-1.09-0.52-2.11-1.38-2.771C95.715,7.37,88.675,5,81.545,5h-3.11   c-5.99,0-11.55,2.85-16.43,6.21c-1.14-0.45-2.43-0.28-3.41,0.47c-7.43,5.66-12.56,16.56-12.77,27.21c0.03,2.86,0.47,5.68,1.31,8.41   c-0.7,0.44-1.34,0.99-1.89,1.63c-1.57,1.82-2.25,4.23-1.88,6.61L44.895,65.2z M59.095,33.89c4.75,0.64,9.61-0.93,13.08-4.31   l0.28-0.27l4.56,3.11c6.91,4.71,15.37,6.29,23.47,4.44l5.59,8.71c-0.15,0.45-0.28,0.89-0.45,1.33l-0.44,1.14l-2.56,2.67   c-1.83-3.56-5.54-6.01-9.83-6.01c-5.22,0-9.59,3.63-10.73,8.47h-4.14c-1.14-4.84-5.51-8.47-10.73-8.47c-4.29,0-8.01,2.46-9.83,6.03   l-2.52-2.61l-0.65-1.76c-0.13-0.37-0.24-0.75-0.35-1.12L59.095,33.89z M98.825,55.67c0,3.3-2.7,5.98-6.03,5.98   c-3.33,0-6.03-2.68-6.03-5.98c0-3.29,2.7-5.97,6.03-5.97C96.125,49.7,98.825,52.38,98.825,55.67z M73.225,55.67   c0,3.3-2.7,5.98-6.03,5.98c-3.32,0-6.03-2.68-6.03-5.98c0-3.29,2.71-5.97,6.03-5.97C70.525,49.7,73.225,52.38,73.225,55.67z    M50.555,53.48c0.16-0.17,0.5-0.47,1.07-0.47c0.3,0,0.59-0.04,0.87-0.12l3.72,3.85c0.55,5.55,5.26,9.91,10.98,9.91   c5.22,0,9.59-3.63,10.73-8.48h4.14c1.14,4.85,5.51,8.48,10.73,8.48c5.72,0,10.44-4.36,10.98-9.91l3.69-3.86   c0.29,0.08,0.59,0.13,0.9,0.13c0.57,0,0.91,0.3,1.07,0.47c0.16,0.2,0.35,0.53,0.28,0.96l-1.55,9.66c-0.02,0.11-0.18,0.23-0.4,0.23   h-2.02c-1.65,0-3.09,1.21-3.43,2.83c-0.04,0.21-0.31,1.31-1.86,7.13c-1.18,4.46-4.21,8.26-8.31,10.44l-4.21,2.24   c-4.97,2.64-10.91,2.64-15.88,0l-4.21-2.24c-4.1-2.18-7.12-5.98-8.31-10.44c-1.59-5.98-1.82-6.97-1.85-7.09   c-0.31-1.66-1.75-2.87-3.44-2.87h-2.03c-0.21,0-0.38-0.11-0.41-0.25l-1.53-9.62C50.205,54.01,50.395,53.68,50.555,53.48z"></path><path d="M125.825,106.1l-16.565-4.683l0.042,0.305c0.324,2.369,0.506,4.752,0.561,7.138l14.172,4.011   c0.08,0.02,0.17,0.04,0.25,0.06c6.97,1.42,12.04,7.67,12.04,14.85v8.04c0,2.13-1.31,9.49-2.45,12.18h-51.38v-23.972   c-0.204,0.014-0.408,0.032-0.613,0.032H78.11c-0.206,0-0.41-0.018-0.615-0.032V148h-51.38c-1.13-2.69-2.44-10.05-2.44-12.18v-8.04   c0-7.18,5.06-13.43,12.03-14.85c0.08-0.02,0.17-0.04,0.25-0.06l14.174-4.013c0.056-2.385,0.238-4.767,0.561-7.136l0.042-0.311   L34.175,106.1c-10.15,2.14-17.5,11.23-17.5,21.68v8.04c0,1.6,0.56,5.81,1.4,9.54c1.06,4.66,2.53,9.64,6.61,9.64h110.62   c4.09,0,5.55-4.98,6.61-9.64c0.84-3.73,1.41-7.94,1.41-9.54v-8.04C143.325,117.33,135.965,108.24,125.825,106.1z"></path><path d="M64.724,55.529c0,1.356,1.107,2.456,2.473,2.456c1.366,0,2.473-1.1,2.473-2.456s-1.107,0.19-2.473,0.19   C65.831,55.719,64.724,54.173,64.724,55.529z"></path><path d="M90.322,55.529c0,1.356,1.107,2.456,2.473,2.456c1.366,0,2.473-1.1,2.473-2.456s-1.107,0.19-2.473,0.19   C91.429,55.719,90.322,54.173,90.322,55.529z"></path><path d="M102.822,97.189c-5.403-0.312-10.907,0.854-15.918,3.39l-1.53,0.773c-0.962-0.761-2.174-1.219-3.493-1.219H78.11   c-1.319,0-2.531,0.458-3.493,1.219l-1.53-0.773c-5.011-2.535-10.512-3.706-15.92-3.389l-2.345,0.14l-0.665,4.865   c-0.739,5.409-0.739,10.894,0,16.301l0.665,4.867l2.347,0.141c0.579,0.033,1.158,0.051,1.738,0.051   c4.838,0,9.706-1.178,14.179-3.441l1.529-0.773c0.962,0.761,2.175,1.22,3.494,1.22h3.772c1.319,0,2.531-0.458,3.494-1.219   l1.528,0.773c4.474,2.264,9.342,3.441,14.181,3.441c0.581,0,1.161-0.018,1.74-0.052l2.343-0.14l0.666-4.866   c0.739-5.408,0.739-10.893,0-16.302l-0.666-4.865L102.822,97.189z M72.465,107.662l-5.793,0.944   c-0.854,0.139-1.48,0.876-1.48,1.741l0,0c0,0.865,0.627,1.602,1.48,1.741l5.793,0.944v1.793l-1.635,0.827   c-3.738,1.892-7.638,2.865-11.617,2.903l-0.098-0.72c-0.678-4.965-0.679-9.999-0.002-14.963l0.1-0.734   c3.98,0.039,7.88,1.012,11.618,2.902l1.634,0.827V107.662z M82.527,107.847v5v2.067c0,0.355-0.29,0.646-0.645,0.646H78.11   c-0.356,0-0.646-0.29-0.646-0.646v-2.067v-5v-2.067c0-0.355,0.29-0.646,0.646-0.646h3.772c0.355,0,0.645,0.29,0.645,0.646V107.847z    M93.321,108.605l-5.794-0.944v-1.794l1.634-0.827c3.739-1.891,7.639-2.864,11.618-2.902l0.101,0.735   c0.678,4.956,0.678,9.981,0.001,14.937l-0.102,0.746c-3.98-0.039-7.881-1.013-11.618-2.903l-1.634-0.827v-1.793l5.794-0.944   c0.854-0.139,1.48-0.876,1.48-1.741l0,0C94.801,109.482,94.175,108.745,93.321,108.605z"></path></g></svg></g><path fill="#ffffff" fill-rule="nonzero" d="M0.79 11.35L0.58 10.49Q0.26 10.25 0.26 10.00Q0.26 9.74 0.43 9.53L0.43 9.53Q0.19 7.68 0.10 5.26Q0 2.83 0 2.51Q0 2.18 0.01 1.81Q0.02 1.44 0.12 0.98L0.12 0.98Q0.29 0.07 1.22 0.07L1.22 0.07Q3.70 0.07 5.99 2.30Q8.28 4.54 8.28 7.15L8.28 7.15Q8.28 9.12 7.06 10.12Q5.83 11.11 3.72 11.11L3.72 11.11Q3.31 11.11 2.57 11.02L2.57 11.02Q2.57 11.40 2.26 11.69Q1.94 11.98 1.54 11.98L1.54 11.98Q0.91 11.98 0.79 11.35L0.79 11.35ZM1.80 1.85L1.80 1.85Q1.78 2.11 1.78 2.76Q1.78 3.41 1.91 5.63Q2.04 7.85 2.26 9.41L2.26 9.41Q2.45 9.46 3.74 9.46L3.74 9.46Q6.55 9.46 6.55 7.87L6.55 7.87Q6.55 5.86 5.27 4.27Q3.98 2.69 1.80 1.85ZM15.26 0.14L15.26 0.14Q17.04 0.14 18.13 1.51Q19.22 2.88 19.22 5.26Q19.22 7.63 18.02 9.36Q16.82 11.09 14.98 11.09L14.98 11.09Q12.96 11.09 11.69 9.36Q10.42 7.63 10.42 5.14Q10.42 2.64 11.74 1.39Q13.06 0.14 15.26 0.14ZM17.50 5.52Q17.50 3.60 16.94 2.70Q16.39 1.80 15 1.80Q13.61 1.80 12.84 2.65Q12.07 3.50 12.07 5.08Q12.07 6.65 12.89 7.99Q13.70 9.34 15.14 9.34L15.14 9.34Q15.96 9.34 16.54 8.64L16.54 8.64Q17.50 7.44 17.50 5.52ZM28.18 1.01L28.18 1.01Q28.15 0.91 28.15 0.70Q28.15 0.48 28.45 0.24Q28.75 0 29.06 0Q29.38 0 29.63 0.19Q29.88 0.38 29.90 0.62L29.90 0.62Q30.14 3.05 30.14 4.44Q30.14 5.83 30.07 6.60L30.07 6.60Q29.90 8.93 28.91 10.02Q27.91 11.11 25.85 11.11L25.85 11.11Q24.34 11.11 23.33 10.24Q22.32 9.36 21.91 7.94L21.91 7.94Q21.29 5.81 21.29 3.19L21.29 3.19Q21.29 2.06 21.41 0.91L21.41 0.91Q21.43 0.58 21.78 0.36Q22.13 0.14 22.43 0.14Q22.73 0.14 22.92 0.34Q23.11 0.53 23.09 0.84L23.09 0.84Q22.97 2.09 22.97 3.08Q22.97 4.08 23.02 4.87L23.02 4.87Q23.16 6.79 23.90 8.15Q24.65 9.50 25.85 9.50L25.85 9.50Q28.46 9.50 28.46 5.04L28.46 5.04Q28.46 2.38 28.18 1.01ZM33.82 10.46L33.82 10.46Q33.72 11.06 32.96 11.06Q32.21 11.06 32.21 10.44L32.21 10.44Q32.21 9.02 33.60 4.68L33.60 4.68Q34.22 2.69 34.99 1.37Q35.76 0.05 36.48 0.05L36.48 0.05Q36.86 0.05 37.15 0.50Q37.44 0.96 38.20 2.58Q38.95 4.20 39.46 6.01Q39.96 7.82 40.56 10.44L40.56 10.44Q40.56 10.75 40.34 10.93Q40.13 11.11 39.82 11.11L39.82 11.11Q39.05 11.11 38.86 10.44L38.86 10.44L38.02 7.15Q35.90 7.15 34.63 6.82L34.63 6.82Q33.91 9.46 33.82 10.46ZM36.41 2.26L36.41 2.26Q35.62 3.60 35.11 5.26L35.11 5.26Q36.17 5.54 37.61 5.54L37.61 5.54Q37.15 3.89 36.41 2.26ZM44.50 3.62L44.50 3.62L44.23 9.46Q44.21 10.22 44.18 10.49L44.18 10.49Q44.09 11.14 43.34 11.14L43.34 11.14Q43.06 11.14 42.83 10.93Q42.60 10.73 42.58 10.42L42.58 10.42Q42.77 4.18 42.77 3.68Q42.77 3.19 42.77 2.59Q42.77 1.99 42.89 1.51L42.89 1.51Q43.06 0.86 43.75 0.86L43.75 0.86Q44.09 0.86 44.59 1.32Q45.10 1.78 46.06 3L46.06 3Q48.34 5.81 49.51 8.30L49.51 8.30Q49.46 4.90 49.34 3.11Q49.22 1.32 49.22 1.15Q49.22 0.98 49.22 0.96L49.22 0.96Q49.39 0.05 50.21 0.05L50.21 0.05Q50.52 0.05 50.78 0.32Q51.05 0.60 51.05 1.01L51.05 1.01L51.17 9.94Q51.17 11.18 50.16 11.18L50.16 11.18Q49.56 11.18 49.22 10.76Q48.89 10.34 48.74 10.10Q48.60 9.86 48.31 9.34L48.31 9.34Q46.46 5.86 44.50 3.62ZM60.86 2.09L60.86 2.09L58.92 1.85Q55.03 1.85 55.03 5.74L55.03 5.74Q55.03 7.70 56.21 8.86L56.21 8.86Q56.78 9.46 57.41 9.46Q58.03 9.46 59.59 8.90Q61.15 8.35 61.27 8.35L61.27 8.35Q61.92 8.35 61.92 8.95L61.92 8.95Q61.92 9.46 61.37 9.82L61.37 9.82Q58.37 11.09 57.02 11.09L57.02 11.09Q56.21 11.09 55.42 10.56Q54.62 10.03 54.17 9.19L54.17 9.19Q53.23 7.54 53.23 5.64L53.23 5.64Q53.23 3.10 54.77 1.61Q56.30 0.12 58.70 0.12L58.70 0.12Q60.10 0.12 61.46 0.58L61.46 0.58L61.46 0.60Q61.90 0.86 61.90 1.20Q61.90 1.54 61.55 1.81Q61.20 2.09 60.86 2.09ZM66 5.71L66 5.71L66.05 8.86Q66.05 9.48 66.02 9.53L66.02 9.53L70.18 9.46Q70.87 9.53 70.87 10.06L70.87 10.06Q70.87 11.06 69.94 11.06L69.94 11.06L65.23 11.11Q64.80 11.11 64.60 10.81Q64.39 10.51 64.37 10.18Q64.34 9.84 64.34 9.43L64.34 9.43L64.34 5.45Q64.03 5.28 64.03 4.94Q64.03 4.61 64.30 4.34L64.30 4.34Q64.22 2.47 64.22 0.94L64.22 0.94Q64.22 0.05 65.30 0.02L65.30 0.02Q65.59 0.02 65.98 0.02L65.98 0.02L70.18 0.10L70.20 0.10Q70.97 0.19 70.97 0.82L70.97 0.82Q70.97 1.30 70.68 1.46L70.68 1.46Q70.06 1.80 67.68 1.80L67.68 1.80Q66.79 1.80 65.90 1.73L65.90 1.73Q65.90 3.89 65.93 4.15L65.93 4.15Q66.86 4.18 69.60 4.18L69.60 4.18Q70.34 4.27 70.34 4.85L70.34 4.85Q70.34 5.14 70.10 5.40Q69.86 5.66 69.59 5.70Q69.31 5.74 68.41 5.74Q67.51 5.74 66 5.71ZM74.80 8.23Q75.31 8.23 75.70 8.62Q76.08 9 76.15 9.67L76.15 9.67Q76.15 10.20 75.77 10.64Q75.38 11.09 74.87 11.09Q74.35 11.09 73.94 10.81Q73.54 10.54 73.54 9.96Q73.54 9.38 73.91 8.81Q74.28 8.23 74.80 8.23ZM78.31 3.94Q78.31 1.78 78.84 0.89Q79.37 0 81 0Q82.63 0 83.68 0.78Q84.72 1.56 84.72 2.83Q84.72 4.10 83.98 4.87L83.98 4.87Q84.82 5.06 85.37 5.92Q85.92 6.77 85.92 7.70L85.92 7.70Q85.92 9.24 84.84 10.30L84.84 10.30Q84.07 11.11 78.41 11.11L78.41 11.11Q78.41 10.99 78.38 10.08L78.38 10.08Q78.31 7.34 78.31 3.94L78.31 3.94ZM79.99 2.71L79.99 2.71L79.99 4.75Q81.31 4.75 82.28 4.31Q83.26 3.86 83.26 2.83L83.26 2.83Q83.26 2.26 82.68 1.88Q82.10 1.51 81.31 1.51Q80.52 1.51 80.26 1.80Q79.99 2.09 79.99 2.71ZM82.44 6.02L82.44 6.02Q81.34 6.02 79.97 6.22L79.97 6.22Q79.94 6.72 79.94 7.57Q79.94 8.42 80.06 9.65L80.06 9.65Q80.26 9.65 80.76 9.65Q81.26 9.65 82.25 9.50L82.25 9.50Q84.43 9.14 84.43 7.70L84.43 7.70Q84.43 6.02 82.44 6.02ZM89.86 5.71L89.86 5.71L89.90 8.86Q89.90 9.48 89.88 9.53L89.88 9.53L94.03 9.46Q94.73 9.53 94.73 10.06L94.73 10.06Q94.73 11.06 93.79 11.06L93.79 11.06L89.09 11.11Q88.66 11.11 88.45 10.81Q88.25 10.51 88.22 10.18Q88.20 9.84 88.20 9.43L88.20 9.43L88.20 5.45Q87.89 5.28 87.89 4.94Q87.89 4.61 88.15 4.34L88.15 4.34Q88.08 2.47 88.08 0.94L88.08 0.94Q88.08 0.05 89.16 0.02L89.16 0.02Q89.45 0.02 89.83 0.02L89.83 0.02L94.03 0.10L94.06 0.10Q94.82 0.19 94.82 0.82L94.82 0.82Q94.82 1.30 94.54 1.46L94.54 1.46Q93.91 1.80 91.54 1.80L91.54 1.80Q90.65 1.80 89.76 1.73L89.76 1.73Q89.76 3.89 89.78 4.15L89.78 4.15Q90.72 4.18 93.46 4.18L93.46 4.18Q94.20 4.27 94.20 4.85L94.20 4.85Q94.20 5.14 93.96 5.40Q93.72 5.66 93.44 5.70Q93.17 5.74 92.27 5.74Q91.37 5.74 89.86 5.71Z" transform="translate(36, 12.012)"></path></svg>